<svg width="1162" height="867" viewBox="0 0 1162 867" fill="none" xmlns="http://www.w3.org/2000/svg">
<g clip-path="url(#clip0_18_15)">
<path d="M675.653 742.452C677.249 741.009 681.212 732.149 679.961 730.784C679.58 730.368 672.571 734.683 669.424 734.82C647.264 735.783 652.351 688.386 672.494 688.944C674.934 689.011 677.905 691.371 680.264 690.839C681.522 690.555 684.759 680.876 688.967 689.279C687.185 706.107 696.091 740.451 678.317 750.628C668.892 756.024 651.863 751.34 658.177 741.482C662.597 734.579 667.975 749.394 675.653 742.452ZM678.659 700.076C665.604 685.017 653.513 731.687 674.021 725.323C681.964 722.858 683.076 705.17 678.659 700.076Z" fill="#0058A3"/>
<path d="M703.968 726.778V744.778C703.968 745.262 694.968 748.296 694.968 745.278V686.278C694.968 683.129 703.534 686.075 705.241 685.634C707.923 684.942 708.893 680.435 716.041 681.226C738.185 683.675 730.467 739.061 703.968 726.778ZM706.229 718.504C718.486 729.034 727.413 692.771 714.228 689.95C701.991 687.332 700.863 713.895 706.229 718.504Z" fill="#0058A3"/>
<path d="M796.756 660.992C820.995 659.219 817.267 709.956 793.509 708.819C770.977 707.741 775.75 662.529 796.756 660.992ZM790.228 698.507C803.513 709.82 811.937 671.697 798.24 669.939C787.345 668.541 784.48 693.613 790.228 698.507Z" fill="#0058A3"/>
<path d="M871.609 690.418C862.774 698.18 844.781 692.585 849.622 682.012C852.73 675.226 858.615 685.704 862.468 685.702C866.593 685.7 871.651 679.95 866.953 676.286C861.713 672.201 840.51 674.509 851.121 655.432C859.865 639.711 880.965 651.579 875.511 659.81C870.963 666.674 868.063 653.152 860.403 657.721C849.168 664.423 869.66 666.621 871.693 667.552C880.889 671.765 877.709 685.059 871.609 690.418Z" fill="#0058A3"/>
<path d="M841.598 657.147C844.837 660.958 845.818 668.522 838.704 666.625C836.251 665.971 831.037 658.563 826.902 665.217C822.245 672.711 835.129 672.523 838.967 674.279C854.58 681.42 839.79 706.722 821.7 698.547C814.235 695.173 816.279 685.788 823.244 687.749C824.353 688.062 828.625 695.136 834.014 690.05C842.374 682.161 826.07 681.264 822.698 679.548C805.277 670.678 829.342 642.725 841.598 657.147Z" fill="#0058A3"/>
<path d="M745.975 674.774C746.514 675.412 762.093 669.814 755.047 680.36C753.584 682.549 747.499 683.269 747.109 683.919C746.129 685.55 745.642 707.528 747.026 708.714C749.35 710.706 757.822 704.804 755.746 713.054C753.952 720.185 740.612 720.809 738.419 713.826C736.894 708.968 739.037 685.764 737.971 684.777C737.15 684.016 731.984 686.803 731.876 681.279C731.78 676.329 736.949 677.474 737.832 675.142C739.068 671.878 736.062 662.254 740.201 660.436C750.213 656.039 744.141 672.603 745.975 674.774Z" fill="#0058A3"/>
<path d="M773.853 684.872C775.326 685.798 775.215 691.158 773.247 692.836C771.013 694.74 757.256 697.079 755.964 695.782C755.639 695.456 755.607 689.421 756.95 688.26C757.602 687.697 773.123 684.413 773.853 684.872Z" fill="#0058A3"/>
<path d="M873.468 160.778C869.074 160.287 855.934 157.445 853.525 153.721C845.842 141.842 865.199 97.4923 872.165 85.4754C924.58 -4.94047 1053.33 18.9143 1044.94 134.255C1043.22 158.004 1032.76 180.783 1030.1 204.411C1029.55 209.343 1027.95 223.232 1029.99 226.99C1031.31 229.426 1072.62 247.585 1079.64 251.609C1111.52 269.892 1142.8 296.172 1155.42 331.827C1172.25 379.374 1155.89 431.19 1109.99 454.297C1103.53 457.546 1086.99 461.533 1083.63 463.941C1082.71 464.602 1081.94 464.829 1081.96 466.268L1102.75 789.065C1102.52 789.837 1100.87 791.778 1100.47 791.778H929.468C917.538 791.778 938.39 766.37 940.454 763.765C945.381 757.545 969.417 733.457 969.956 728.185C966.959 705.313 965.625 682.204 962.946 659.3C961.245 644.762 947.736 565.605 953.04 558.357C957.914 551.698 961.167 562.996 961.848 566.397C970.061 607.373 971.68 659.725 975.988 702.258C976.739 709.674 980.37 724.115 980.025 730.264C979.461 740.295 937.271 778.651 940.976 782.775L1094.86 781.109L1073.97 465.773C1044.94 467.911 1019.36 463.577 991.547 456.699C982.527 454.469 971.847 449.301 963.377 447.869C959.464 447.207 929.209 445.519 927.964 446.779C926.559 448.201 932.679 462.205 928.668 467.489C922.943 475.032 873.061 472.837 871.121 475.937C868.039 480.863 870.521 514.663 867.974 522.771C869.365 524.245 902.142 527.086 908 529.246C911.451 530.519 913.47 533.825 913.872 537.374C914.515 597.014 913.364 656.687 913.918 716.327C914.091 734.866 917.604 755.572 914.707 774.017C914.223 777.097 913.093 779.935 910.904 782.214C833.871 804.29 757.402 829.673 679.964 850.275C652.97 857.457 636.289 865.118 608.14 859.106C532.143 842.875 452.215 822.016 376.766 802.48C370.323 800.811 347.707 796.176 343.919 793.327C339.576 790.059 339.296 783.459 338.919 778.327C337.92 764.708 340.793 750.872 341.017 737.327C341.865 686.049 340.231 634.687 341.027 583.404C326.662 580.233 311.174 581.27 297.979 573.779C299.798 605.728 305.265 637.262 307.005 669.241C308.977 705.472 308.469 741.959 308.997 778.248L365.355 851.889C368.993 859.942 367.205 863.824 358.466 864.78C347.325 865.999 330.431 865.572 318.517 865.827C270.56 866.855 222.343 865.12 174.517 864.729C148.8 864.519 116.962 867.506 92.4233 865.814C88.1123 865.517 82.6257 864.639 82.974 859.293C84.8003 799.756 89.5992 740.26 92.9639 680.786C84.557 682.21 68.4009 681.867 63.1156 674.13C61.9009 672.352 61.8411 669.227 60.4545 667.791C58.6083 665.879 52.2582 664.986 49.5493 661.696C47.0423 658.651 47.3282 653.967 45.4528 651.793C41.2966 646.974 31.9741 648.814 30.9608 636.267C28.9811 611.751 68.5974 622.43 40.4935 595.752C24.4747 580.546 11.3797 569.319 4.46011 546.786C-19.8621 467.581 60.7725 418.771 113.794 379.107C109.444 343.947 90.1319 312.054 86.9895 276.256C80.8353 206.151 138.407 149.465 208.49 176.756C241.338 189.547 250.798 216.692 271.003 242.243C281.941 256.075 297.656 263.02 292.926 284.235C292.446 286.389 289.063 290.238 290.016 291.725C290.341 292.233 298.222 295.895 300.44 297.806C317.77 312.74 329.679 345.771 331.006 368.24C331.555 377.543 327.852 397.54 329.439 403.81C331.222 410.855 350.119 437.217 355.136 446.11C370.185 472.787 386.49 502.534 387.969 533.782L602.946 490.257C619.521 487.35 635.332 484.54 652.329 485.917L858.972 519.783L860.963 476.784L746.491 487.829C742.581 487.915 737.473 487.956 735.083 484.163C731.396 478.312 726.009 443.231 724.291 433.955C717.998 399.994 713.497 365.631 707.666 331.579C703.056 304.653 693.111 271.919 691.985 245.259C691.35 230.199 695.665 227.494 703.563 215.874C719.333 192.673 738.55 171.679 753.547 147.857C758.009 143.391 761.237 141.888 765.733 147.512C768.992 155.566 776.054 216.699 779.11 218.637C783.492 221.417 869.795 206.031 882.237 206.966C883.593 207.349 888.087 212.083 888.696 213.55C890.266 217.332 893.572 250.863 895.462 250.772C896.104 250.742 903.806 243.45 903.869 241.299C903.961 238.152 898.606 227.249 897.474 222.772C894.402 210.631 891.917 195.752 890.986 183.26C890.792 180.661 892.092 160.778 890.968 160.778C885.545 160.778 878.645 161.357 873.468 160.778ZM1013.37 61.3857C971.621 18.7533 905.005 45.8341 879.158 92.4687C874.008 101.761 859.799 137.102 861.958 146.288C863.983 154.909 898.27 146.596 900.771 154.474C903.019 161.556 900.683 187.958 902.108 199.138C903.092 206.861 905.263 215.3 907.474 222.771C909.307 228.962 915.206 238.562 915.07 244.3C914.86 253.082 896.544 257.944 895.944 262.265C898.5 269.16 903.523 321.005 906.114 322.636C906.968 323.174 922.09 324.122 926.169 325.077C963.222 333.748 978.48 359.326 1023.62 365.621C1029.86 366.491 1064.39 368.094 1066.04 370.463C1068.24 373.624 1065.78 376.869 1062.4 377.792C1034.19 376.128 1002.67 375.404 976.924 362.322C963.638 355.57 952.444 344.165 937.948 338.298C933.92 336.667 909.771 329.978 907.969 331.775C907.518 332.224 908.494 341.838 909.165 342.577C910.189 343.703 924.214 345.055 924.849 345.89C925.429 346.652 925.251 352.484 924.031 353.342C922.105 354.697 902.993 352.565 898.43 352.739C889.919 353.066 862.976 356.925 866.356 369.845C868.878 379.482 910.941 376.499 919.822 378.424C923.228 379.162 927.813 380.336 925.497 384.791C922.131 391.268 880.323 383.128 871.527 384.837C863.768 386.345 862.732 395.415 869.029 400.217C880.468 408.941 922.142 404.549 925.719 408.023C927.006 409.274 927.13 412.824 926.071 414.152C921.458 419.934 874.112 410.57 870.961 413.783C866.905 417.918 881.546 426.667 884.302 427.944C910.658 440.154 938.429 433.562 965.205 438.04C975.66 439.789 985.562 445.034 995.531 447.715C1052.95 463.156 1129.94 462.207 1149.23 393.538C1169.27 322.178 1106.44 274.357 1050.32 246.921C1044.27 243.963 1022.98 237.062 1020.73 232.512C1011.61 214.036 1033.81 156.136 1035.83 133.14C1038.14 106.79 1032.15 80.565 1013.37 61.3857ZM770.974 221.775L758.468 158.801L705.973 229.772C713.689 227.13 768.666 224.098 770.974 221.775ZM93.4676 855.778H236.968L201.012 805.234C207.053 758.187 206.106 709.212 210.988 662.298C211.246 659.815 212.197 650.762 213.124 649.436C218.346 641.966 220.986 653.642 221.047 657.274C221.777 700.967 212.086 750.261 209.987 794.298C209.828 797.628 209.45 802.685 210.516 805.73C224.754 821.731 236.223 840.936 252.125 855.121L353.967 854.767C336.906 829.347 315.453 806.603 299.563 780.599C301.689 724.025 298.337 667.552 292.95 611.296C291.286 593.917 286.052 572.096 285.9 555.286C285.86 550.854 286.397 543.114 292.767 546.437C295.713 547.974 294.282 557.227 295.626 560.538C298.472 567.549 333.123 573.771 340.968 572.778V547.278C340.968 540.1 374.981 538.897 377.983 536.293C381.667 533.099 374.797 509.931 373.24 505.005C367.954 488.277 358.357 470.772 349.771 455.475C343.596 444.474 322.012 414.968 319.428 405.818C317.195 397.914 321.322 389.878 321.944 382.255C324.264 353.836 307.377 302.38 275.994 295.256C260.861 291.821 249.431 297.232 265.054 310.192C271.584 315.608 292.44 325.674 295.439 332.801C300.613 345.098 285.147 337.028 281.402 336.859C278.066 336.709 258.396 342.472 256.618 344.682C255.503 346.069 255.978 347.22 255.968 348.778H275.468C279.037 348.778 293.118 357.588 289.094 362.334C285.545 366.52 280.39 360.862 276.5 359.745C254.966 353.561 239.853 362.031 243.06 386.187C243.448 389.108 249.937 402.243 252.962 398.773C253.584 398.058 254.035 384.075 257.052 380.366C258.803 378.214 262.761 377.738 263.819 380.424C264.762 382.818 261.521 400.443 261.936 406.309C264.294 439.647 296.49 478.355 300.73 507.52C301.566 513.267 300.513 517.239 293.958 515.29C280.209 479.72 263.676 445.219 251.689 409.057C220.753 394.702 236.603 371.903 243.691 350.002C246.686 340.749 250.444 319.759 250.008 310.23C249.638 302.15 243.792 295.975 251.026 289.337C260.096 281.016 278.474 287.777 282.531 283.834C292.971 273.688 264.915 250.59 259.151 243.142C249.022 230.057 241.976 213.162 229.497 201.744C186.462 162.368 111.241 181.448 98.2711 239.582C88.7295 282.35 109.195 318.107 119.681 357.564C122.108 366.696 128.183 380.629 120.479 387.79C109.803 397.713 87.6098 409.331 74.5014 419.812C23.0978 460.913 -19.8574 515.6 33.4568 576.789C43.1406 587.903 67.6723 600.725 59.1729 617.484C55.2162 625.285 35.8739 628.526 41.9213 639.071C46.8397 647.647 62.6819 636.467 66.9391 631.25C69.8753 627.651 74.2038 614.039 80.0344 618.21C86.1699 622.598 71.5959 640.771 66.8683 644.16C64.0527 646.179 55.4235 649.313 55.0273 649.837C53.658 651.647 56.2925 655.117 58.0115 656.232C66.9233 662.015 84.3229 649.039 89.9636 642.274C91.1635 640.835 100.784 622.239 103.811 630.444C107.449 640.307 89.4959 656.73 81.885 661.196C78.8103 663 70.395 665.308 69.9716 665.786C67.3759 668.715 79.8763 671.775 82.3034 671.694C106.003 670.91 125.566 644.11 127.839 622.149C131.943 582.506 107.092 567.376 91.1643 537.081C85.8478 526.97 84.6794 526.441 89.1095 515.42C91.0113 510.689 101.736 488.715 108.037 493.21C114.945 498.138 94.771 517.684 96.1566 526.016C97.2914 532.84 121.082 564.071 126.138 574.108C142.528 606.641 141.929 642.46 113.432 667.743C107.542 672.968 102.183 671.984 101.106 680.406C95.9007 721.15 97.351 767.746 94.9487 809.259C94.259 821.178 90.6725 837.312 90.9442 848.328C90.9884 850.122 91.7572 855.177 93.4676 855.778ZM880.821 216.924L699.963 237.775L741.903 478.366L920.97 462.773C920.216 459.558 919.439 446.119 917.302 444.692C914.85 443.055 890.928 439.17 884.454 436.792C876.351 433.816 862.607 427.268 861.907 417.257C861.664 413.779 865.286 405.674 864.89 404.909C864.28 403.732 858.012 403.288 857.045 395.176C855.881 385.401 862.197 383.582 862.797 380.121C863.104 378.35 857.188 371.494 857.034 367.191C856.481 351.745 888.806 342.673 900.969 344.773L880.821 216.924ZM255.979 334.777C256.477 335.46 271.315 329.82 271.944 329.257C275.767 325.838 262.569 317.592 258.653 318.914C255.25 320.063 255.304 333.853 255.979 334.777ZM886.962 534.79C803.96 522.526 721.606 505.616 638.439 494.716C563.211 509.475 487.882 523.779 412.766 539.077C401.062 541.461 386.552 543.533 375.418 546.729C374.056 547.12 372.314 546.855 371.968 548.767L619.605 592.639L627.505 592.806C711.166 570.933 801.242 559.536 884.166 536.465C885.198 536.178 887.199 536.228 886.962 534.79ZM904.968 541.778L631.615 601.737L629.919 610.232L629.975 852.773L904.968 773.778V541.778ZM620.968 851.778V603.278L349.964 554.773L348.9 783.33L620.968 851.778Z" fill="#0058A3"/>
<path d="M232.719 322.019C234.322 323.597 234.436 328.567 232.193 329.759C226.379 328.488 202.057 339.133 200.107 332.056C197.648 323.13 228.452 317.818 232.719 322.019Z" fill="#0058A3"/>
<path d="M204.237 253.514C201.348 250.902 196.412 232.17 203.476 231.676C216.748 230.748 214.679 262.957 204.237 253.514Z" fill="#0058A3"/>
<path d="M296.729 35.0397C320.047 31.8016 342.147 48.4699 338.702 73.018C336.825 86.3945 324.139 91.2261 316.995 100.306C312.418 106.123 310.509 117.112 302.347 117.727C286.475 118.922 291.262 99.667 297.995 91.3064C304.514 83.2129 322.558 75.2469 314.794 62.4498C309.655 53.9808 297.348 54.5044 291.539 61.8498C287.835 66.5337 288.96 72.827 281.482 73.7923C262.536 76.2381 268.714 54.6655 276.46 45.771C281.139 40.3986 289.626 36.0262 296.729 35.0397Z" fill="#FFDA1A"/>
<path d="M299.766 129.997C317.569 128.241 319.037 152.817 303.342 153.734C288.222 154.617 284.273 131.525 299.766 129.997Z" fill="#FFDA1A"/>
<path d="M365.559 162.38C329.948 200.713 271.26 196.256 239.001 156.245C188.861 94.0533 232.003 -10.8398 317.337 0.909047C391.951 11.1819 413.679 110.583 365.559 162.38ZM297.775 11.0842C204.813 16.8367 204.09 171.67 298.606 178.641C405.155 186.499 412.414 3.99031 297.775 11.0842Z" fill="#0058A3"/>
<path d="M965.709 171.932C969.958 170.872 972.841 174.755 970.82 179.123C966.079 189.368 947.138 198.65 936.338 199.65C931.207 200.125 909.621 199.726 913.466 190.813C915.804 185.391 926.908 190.015 932.482 189.826C939.622 189.585 948.692 185.857 954.462 181.773C957.224 179.818 962.712 172.68 965.709 171.932Z" fill="#0058A3"/>
<path d="M939.67 98.9725C951.479 95.2064 946.069 118.068 941.953 120.258C929.903 126.668 933.112 101.064 939.67 98.9725Z" fill="#0058A3"/>
<path d="M890.214 114.524C886.412 110.578 889.952 94.0672 897.23 95.9296C905.913 98.1515 896.842 121.399 890.214 114.524Z" fill="#0058A3"/>
<path d="M880.821 216.924L900.969 344.773C888.806 342.673 856.481 351.745 857.034 367.191C857.188 371.494 863.105 378.35 862.797 380.121C862.197 383.582 855.881 385.401 857.046 395.176C858.012 403.289 864.28 403.732 864.89 404.909C865.286 405.674 861.664 413.779 861.907 417.257C862.607 427.268 876.352 433.816 884.454 436.792C890.928 439.17 914.85 443.055 917.302 444.692C919.44 446.119 920.216 459.558 920.97 462.773L741.903 478.366L699.963 237.775L880.821 216.924ZM806.768 257.079C777.979 258.43 722.363 274.11 721.95 310.333C721.244 372.317 896.168 363.211 884.722 290.524C880.068 260.965 830.077 255.985 806.768 257.079Z" fill="#FFDA1A"/>
<path d="M770.974 221.775C768.665 224.098 713.689 227.13 705.973 229.772L758.467 158.801L770.974 221.775Z" fill="#FFDA1A"/>
<path d="M806.768 257.079C830.076 255.985 880.067 260.965 884.722 290.524C896.167 363.21 721.243 372.317 721.949 310.333C722.362 274.11 777.978 258.43 806.768 257.079ZM737.334 288.145C718.749 307.119 728.269 329.22 750.707 338.538C782.502 351.742 833.676 347.324 862.102 327.413C880.222 314.721 888.585 292.518 868.881 276.365C839.988 252.68 763.122 261.82 737.334 288.145Z" fill="#0058A3"/>
<path d="M737.335 288.145C763.122 261.82 839.988 252.68 868.881 276.365C888.586 292.518 880.223 314.722 862.102 327.413C833.676 347.324 782.502 351.742 750.707 338.538C728.269 329.22 718.749 307.119 737.335 288.145ZM863.72 280.026C863.083 279.388 857.315 278.43 856.973 278.781C855.925 279.86 859.474 293.973 858.956 296.778C855.37 294.682 851.151 284.395 848.541 282.704C847.596 282.092 838.338 280.389 837.974 280.783C836.757 282.103 841.436 315.3 842.898 316.342C844.405 317.415 848.985 317.294 849.821 315.137C851.588 310.577 848.06 300.641 846.968 295.789C849.573 295.149 848.733 296.625 849.556 297.667C852.238 301.063 862.298 322.169 868.553 313.813C869.576 312.446 864.926 281.233 863.72 280.026ZM832.859 281.897C831.922 281.19 825.397 281.906 824.934 283.455C824.301 285.577 828.077 312.597 829.009 316.234C829.826 319.424 834.996 318.851 836.998 317.313C838.428 316.214 834.298 282.982 832.859 281.897ZM825.962 319.772C827.323 318.55 813.734 287.097 812.47 285.775C810.971 284.207 803.677 284.301 801.962 285.273C800.349 286.187 795.716 320.412 796.974 321.774C797.247 322.069 804.678 321.058 804.955 320.766C806.775 318.84 799.78 312.507 813.507 312.716C818.308 312.79 815.26 317.588 817.936 319.312C818.973 319.98 825.663 320.04 825.962 319.772ZM777.854 287.895C777.539 287.658 770.24 287.494 769.963 287.775C768.681 289.07 774.301 322.382 775.458 323.79C776.483 325.036 794.288 322.503 794.937 321.748C795.433 321.171 794.56 315.385 793.817 314.925C792.148 313.893 783.031 315.573 782.026 314.714C780.995 313.832 779.301 288.983 777.854 287.895ZM757.71 291.049C755.998 289.129 748.606 290.15 747.154 292.464C746.185 294.008 742.725 327.447 743.974 328.774C744.214 329.029 750.684 327.996 750.907 327.725C752.477 325.823 747.166 321.107 756.499 320.784C766.749 320.429 760.996 329.044 771.963 325.772C767.811 319.049 761.84 295.68 757.71 291.049Z" fill="#FFDA1A"/>
<path d="M863.72 280.026C864.926 281.233 869.576 312.446 868.554 313.812C862.299 322.169 852.238 301.063 849.556 297.667C848.733 296.624 849.573 295.148 846.969 295.789C848.06 300.641 851.588 310.577 849.821 315.137C848.985 317.294 844.405 317.415 842.898 316.341C841.436 315.3 836.758 282.103 837.974 280.783C838.338 280.388 847.596 282.092 848.541 282.704C851.151 284.395 855.37 294.682 858.956 296.778C859.474 293.973 855.925 279.86 856.974 278.781C857.315 278.43 863.083 279.388 863.72 280.026Z" fill="#0058A3"/>
<path d="M757.71 291.048C761.84 295.68 767.811 319.049 771.963 325.772C760.996 329.043 766.749 320.429 756.499 320.784C747.166 321.107 752.477 325.823 750.906 327.725C750.683 327.995 744.214 329.029 743.973 328.774C742.725 327.446 746.185 294.007 747.153 292.464C748.605 290.149 755.998 289.129 757.71 291.048ZM757.972 314.777C759.343 313.398 754.139 301.573 753.473 301.784C751.471 302.418 751.488 314.319 751.961 314.784C752.176 314.994 757.76 314.991 757.972 314.777Z" fill="#0058A3"/>
<path d="M825.962 319.772C825.663 320.04 818.973 319.98 817.936 319.312C815.26 317.588 818.308 312.789 813.507 312.716C799.78 312.507 806.775 318.84 804.955 320.766C804.678 321.058 797.247 322.069 796.974 321.774C795.715 320.412 800.349 286.186 801.962 285.273C803.677 284.301 810.971 284.207 812.47 285.775C813.734 287.097 827.323 318.55 825.962 319.772ZM811.972 307.778C813.229 306.537 808.752 292.721 806.981 293.781C806.034 294.348 805.46 307.292 805.961 307.784C806.176 307.994 811.758 307.989 811.972 307.778Z" fill="#0058A3"/>
<path d="M777.855 287.895C779.302 288.983 780.996 313.831 782.027 314.714C783.032 315.573 792.149 313.892 793.818 314.925C794.56 315.385 795.433 321.171 794.937 321.748C794.289 322.503 776.483 325.036 775.458 323.79C774.302 322.382 768.682 289.069 769.963 287.775C770.241 287.494 777.54 287.658 777.855 287.895Z" fill="#0058A3"/>
<path d="M832.859 281.897C834.298 282.982 838.428 316.214 836.998 317.313C834.996 318.851 829.826 319.424 829.009 316.234C828.077 312.597 824.301 285.577 824.934 283.455C825.397 281.906 831.922 281.19 832.859 281.897Z" fill="#0058A3"/>
<path d="M757.972 314.778C757.76 314.991 752.176 314.994 751.962 314.784C751.488 314.319 751.471 302.419 753.473 301.784C754.139 301.573 759.344 313.398 757.972 314.778Z" fill="#FFDA1A"/>
<path d="M811.972 307.778C811.758 307.989 806.176 307.994 805.962 307.784C805.46 307.292 806.034 294.348 806.981 293.781C808.753 292.721 813.229 306.537 811.972 307.778Z" fill="#FFDA1A"/>
</g>
<defs>
<clipPath id="clip0_18_15">
<rect width="1161.88" height="866.336" fill="white"/>
</clipPath>
</defs>
</svg>
